<svg width="512" height="512" viewBox="0 0 1700.7874 1700.7874" fill="none" xmlns="http://www.w3.org/2000/svg" aria-label="NS logo">
  <g transform="matrix(1 0 0 -1 0 1700.7874)">
    <path fill="#F4F2EB" fill-rule="evenodd" clip-rule="evenodd" d="M850.3937 1700.7874 C1320.0531 1700.7874 1700.7874 1320.0531 1700.7874 850.3937 C1700.7874 380.7343 1320.0531 0 850.3937 0 C380.7343 0 0 380.7343 0 850.3937 C0 1320.0531 380.7343 1700.7874 850.3937 1700.7874 Z M850.3937 1650.2649 C1292.1503 1650.2649 1650.2649 1292.1503 1650.2649 850.3937 C1650.2649 408.6371 1292.1503 50.5227 850.3937 50.5227 C408.6371 50.5227 50.5227 408.6371 50.5227 850.3937 C50.5227 1292.1503 408.6371 1650.2649 850.3937 1650.2649 Z"/>
    <path fill="#F4F2EB" d="M822.2391 1488.3710 c -395.5164 3.3743 -419.1913 -329.8448 -167.4615 -488.7616 c 178.4795 -112.6740 229.1585 -140.0811 229.1585 -140.0811 c 0 0 429.5196 -201.9682 378.9932 -470.1316 l 125.5972 0 l 0 918.5715 l -130.0031 0 l 0 -580.9074 c 0 0 -191.7008 164.4421 -330.5182 228.3925 c 0 0 -403.2304 169.0121 -290.8548 357.8165 c 0 0 66.1025 112.6732 251.1927 76.1306 c 0 0 171.8688 -25.8842 134.4101 -179.6692 c 0 0 -9.3986 -37.5287 -51.2107 -100.6630 l 137.6407 0 c 29.5694 56.2135 50.0131 126.1624 39.1672 205.7244 c 0 0 -35.2551 158.3521 -326.1113 173.5784 z"/>
    <path fill="#F4F2EB" d="M851.4530 212.4164 c 395.5167 -3.3740 419.1914 329.8451 167.4615 488.7618 c -178.4795 112.6738 -229.1581 140.0811 -229.1581 140.0811 c 0 0 -408.0872 173.3913 -378.9936 467.2738 l -125.5969 0 l 0 -917.1425 l 130.0028 0 l 0 582.3363 c 0 0 191.7012 -164.4421 330.5183 -228.3928 c 0 0 392.2138 -185.7606 290.8550 -357.8165 c 0 0 -66.1028 -112.6729 -251.1929 -76.1304 c 0 0 -171.8686 25.8843 -134.4101 179.6692 c 0 0 9.5425 38.0631 52.1002 101.9960 l -137.8205 0 c -29.9557 -56.4446 -50.8090 -126.8632 -39.8769 -207.0573 c 0 0 35.2550 -158.3521 326.1112 -173.5787 z"/>
  </g>
</svg>
